<svg xmlns="http://www.w3.org/2000/svg" fill="none" viewBox="0 0 30 30" width="40px" height="40px">
  <defs>
    <linearGradient id="paint0_linear" x1="1.92667" y1="0" x2="19.7024" y2="29.0178" gradientUnits="userSpaceOnUse">
      <stop offset="0.259336" stop-color="#40A2E3" />
      <stop offset="1" stop-color="#A0DEFF" />
    </linearGradient>
  </defs>
  <path 
    d="M 14 3 C 12.895 3 12 3.895 12 5 L 4 5 C 2.895 5 2 5.895 2 7 L 2 16 C 2 17.105 2.895 18 4 18 L 26 18 C 27.105 18 28 17.105 28 16 L 28 7 C 28 5.895 27.105 5 26 5 L 18 5 C 18 3.895 17.105 3 16 3 L 14 3 Z 
       M 7 13 C 7.552 13 8 13.448 8 14 L 8 15 C 8 15.552 7.552 16 7 16 C 6.448 16 6 15.552 6 15 L 6 14 C 6 13.448 6.448 13 7 13 Z 
       M 23 13 C 23.552 13 24 13.448 24 14 L 24 15 C 24 15.552 23.552 16 23 16 C 22.448 16 22 15.552 22 15 L 22 14 C 22 13.448 22.448 13 23 13 Z 
       M 2 19.443 C 2 20.268 2.591 20.787 4 20 L 26 20 C 26.732 20 27.409 19.787 28 19.443 L 28 23 C 28 24.105 27.105 25 26 25 L 4 25 C 2.895 25 2 24.105 2 23 L 2 19.443 Z" 
    fill="url(#paint0_linear)" 
  />
</svg>
